<?xml version="1.0" standalone="no"?>
<!DOCTYPE svg PUBLIC "-//W3C//DTD SVG 20010904//EN"
 "http://www.w3.org/TR/2001/REC-SVG-20010904/DTD/svg10.dtd">
<svg version="1.0" xmlns="http://www.w3.org/2000/svg"
 width="443.000000pt" height="266.000000pt" viewBox="0 0 443.000000 266.000000"
 preserveAspectRatio="xMidYMid meet">
<metadata>
Created by potrace 1.15, written by Peter Selinger 2001-2017
</metadata>
<g transform="translate(0.000000,266.000000) scale(0.100000,-0.100000)"
fill="#000000" stroke="none">
<path d="M2460 1660 l0 -980 645 0 645 0 -2 978 -3 977 -642 3 -643 2 0 -980z"/>
<path d="M3760 1660 l0 -980 320 0 320 0 0 980 0 980 -320 0 -320 0 0 -980z"/>
<path d="M20 1855 l0 -775 1215 0 1215 0 0 775 0 775 -1215 0 -1215 0 0 -775z"/>
<path d="M18 548 l2 -518 1215 0 1215 0 0 515 0 515 -1218 2 -1217 3 3 -517z"/>
<path d="M2460 350 l0 -320 970 0 970 0 0 313 0 314 -497 6 c-273 4 -709 7
-970 7 l-473 0 0 -320z"/>
</g>
</svg>
